<svg width="25.000000" height="8.744934" viewBox="0 0 25 8.74493" fill="none" xmlns="http://www.w3.org/2000/svg" xmlns:xlink="http://www.w3.org/1999/xlink">
	<desc>
			Created with Pixso.
	</desc>
	<defs/>
	<path id="Icon color" d="M0 4.99121L0 3.74121C0 3.39606 0.279907 3.11621 0.625191 3.11621L20.0062 3.11621L20.0062 0.616211C20.0097 0.366211 20.1619 0.142334 20.3932 0.0471191C20.6246 -0.0480957 20.8904 0.00366211 21.069 0.178711L24.8201 3.92871C25.06 4.17603 25.06 4.56897 24.8201 4.81622L21.069 8.56622C20.8887 8.74286 20.6199 8.79382 20.3875 8.69543C20.1551 8.59705 20.0047 8.36853 20.0062 8.11621L20.0062 5.61621L0.625191 5.61621C0.279907 5.61621 0 5.33643 0 4.99121Z" fill="#707070" fill-opacity="1.000000" fill-rule="nonzero"/>
</svg>
