<svg width="20.192932" height="15.199219" viewBox="0 0 20.1929 15.1992" fill="none" xmlns="http://www.w3.org/2000/svg" xmlns:xlink="http://www.w3.org/1999/xlink">
	<desc>
			Created with Pixso.
	</desc>
	<defs/>
	<path id="Vector" d="M0.725098 1.97461L19.4683 1.97461C19.8131 1.97461 20.0928 1.55469 20.0927 1.03711C20.0924 0.519531 19.8124 0.0996094 19.4675 0.0996094L0.724365 0.0996094C0.379456 0.0996094 0.0997925 0.519531 0.0999756 1.03711C0.100159 1.55469 0.380249 1.97461 0.725098 1.97461Z" fill="#000000" fill-opacity="1.000000" fill-rule="nonzero"/>
	<path id="Vector" d="M19.4683 1.97461C19.8131 1.97461 20.0928 1.55469 20.0927 1.03711C20.0924 0.519531 19.8124 0.0996094 19.4675 0.0996094L0.724365 0.0996094C0.379456 0.0996094 0.0997925 0.519531 0.0999756 1.03711C0.100159 1.55469 0.380249 1.97461 0.725098 1.97461L19.4683 1.97461Z" stroke="#FFFFFF" stroke-opacity="1.000000" stroke-width="0.200000"/>
	<path id="Vector" d="M19.4678 6.66211L0.72467 6.66211C0.379761 6.66211 0.100098 7.08203 0.100281 7.59961C0.100464 8.11719 0.380554 8.53711 0.725403 8.53711L19.4686 8.53711C19.8134 8.53711 20.0931 8.11719 20.093 7.59961C20.0927 7.08203 19.8127 6.66211 19.4678 6.66211Z" fill="#000000" fill-opacity="1.000000" fill-rule="nonzero"/>
	<path id="Vector" d="M0.72467 6.66211C0.379761 6.66211 0.100098 7.08203 0.100281 7.59961C0.100464 8.11719 0.380554 8.53711 0.725403 8.53711L19.4686 8.53711C19.8134 8.53711 20.0931 8.11719 20.093 7.59961C20.0927 7.08203 19.8127 6.66211 19.4678 6.66211L0.72467 6.66211Z" stroke="#FFFFFF" stroke-opacity="1.000000" stroke-width="0.200000"/>
	<path id="Vector" d="M19.4676 13.2246L6.97235 13.2246C6.62744 13.2246 6.34778 13.6445 6.34796 14.1621C6.34814 14.6797 6.62817 15.0996 6.97302 15.0996L19.4683 15.0996C19.8132 15.0996 20.0928 14.6797 20.0927 14.1621C20.0925 13.6445 19.8124 13.2246 19.4676 13.2246Z" fill="#000000" fill-opacity="1.000000" fill-rule="nonzero"/>
	<path id="Vector" d="M6.97235 13.2246C6.62744 13.2246 6.34778 13.6445 6.34796 14.1621C6.34814 14.6797 6.62817 15.0996 6.97302 15.0996L19.4683 15.0996C19.8132 15.0996 20.0928 14.6797 20.0927 14.1621C20.0925 13.6445 19.8124 13.2246 19.4676 13.2246L6.97235 13.2246Z" stroke="#FFFFFF" stroke-opacity="1.000000" stroke-width="0.200000"/>
</svg>
