<svg width="32.000000" height="32.000000" viewBox="0 0 32 32" fill="none" xmlns="http://www.w3.org/2000/svg" xmlns:xlink="http://www.w3.org/1999/xlink">
	<desc>
			Created with Pixso.
	</desc>
	<defs>
		<clipPath id="clip2046_6490">
			<rect id="eye-svgrepo-com 1" width="32.000000" height="32.000000" fill="white" fill-opacity="0"/>
		</clipPath>
	</defs>
	<rect id="eye-svgrepo-com 1" width="32.000000" height="32.000000" fill="#FFFFFF" fill-opacity="0"/>
	<g clip-path="url(#clip2046_6490)">
		<path id="Vector" d="M2.12494 16L3.76245 17.6375C10.5125 24.3875 21.4937 24.3875 28.2437 17.6375L29.8749 16L28.2375 14.3625C21.4875 7.61255 10.5062 7.61255 3.75623 14.3625L2.12494 16ZM15.9999 23.8875C11.2625 23.8875 6.52496 22.0813 2.9187 18.475L0.862488 16.4187C0.631226 16.1875 0.631226 15.8125 0.862488 15.575L2.9187 13.5188C10.1312 6.30627 21.8687 6.30627 29.0812 13.5188L31.1375 15.575C31.3687 15.8063 31.3687 16.1813 31.1375 16.4187L29.0812 18.475C25.475 22.0813 20.7375 23.8875 15.9999 23.8875Z" fill="#000000" fill-opacity="1.000000" fill-rule="nonzero"/>
		<path id="Vector" d="M3.76245 17.6375C10.5125 24.3875 21.4937 24.3875 28.2437 17.6375L29.8749 16L28.2375 14.3625C21.4875 7.61255 10.5062 7.61255 3.75623 14.3625L2.12494 16L3.76245 17.6375ZM2.9187 18.475L0.862488 16.4187C0.631226 16.1875 0.631226 15.8125 0.862488 15.575L2.9187 13.5188C10.1312 6.30627 21.8687 6.30627 29.0812 13.5188L31.1375 15.575C31.3687 15.8063 31.3687 16.1813 31.1375 16.4187L29.0812 18.475C25.475 22.0813 20.7375 23.8875 15.9999 23.8875C11.2625 23.8875 6.52496 22.0813 2.9187 18.475Z" stroke="#000000" stroke-opacity="1.000000" stroke-width="0.300000"/>
		<path id="Vector" d="M16 11.4688C13.5 11.4688 11.4688 13.5 11.4688 16C11.4688 18.5 13.5 20.5312 16 20.5312C18.5 20.5312 20.5312 18.5 20.5312 16C20.5312 13.5 18.5 11.4688 16 11.4688ZM16 21.7188C12.8438 21.7188 10.2812 19.15 10.2812 16C10.2812 12.8438 12.85 10.2812 16 10.2812C19.15 10.2812 21.7188 12.85 21.7188 16C21.7188 19.1562 19.1562 21.7188 16 21.7188Z" fill="#000000" fill-opacity="1.000000" fill-rule="nonzero"/>
		<path id="Vector" d="M11.4688 16C11.4688 18.5 13.5 20.5312 16 20.5312C18.5 20.5312 20.5312 18.5 20.5312 16C20.5312 13.5 18.5 11.4688 16 11.4688C13.5 11.4688 11.4688 13.5 11.4688 16ZM10.2812 16C10.2812 12.8438 12.85 10.2812 16 10.2812C19.15 10.2812 21.7188 12.85 21.7188 16C21.7188 19.1562 19.1562 21.7188 16 21.7188C12.8438 21.7188 10.2812 19.15 10.2812 16Z" stroke="#000000" stroke-opacity="1.000000" stroke-width="0.300000"/>
	</g>
</svg>
