<svg width="18.000000" height="18.000000" viewBox="0 0 18 18" fill="none" xmlns="http://www.w3.org/2000/svg" xmlns:xlink="http://www.w3.org/1999/xlink">
	<desc>
			Created with Pixso.
	</desc>
	<defs>
		<clipPath id="clip212_488">
			<rect id="filter (1) 2" width="18.000000" height="18.000000" fill="white" fill-opacity="0"/>
		</clipPath>
	</defs>
	<rect id="filter (1) 2" width="18.000000" height="18.000000" fill="#FFFFFF" fill-opacity="0"/>
	<g clip-path="url(#clip212_488)">
		<path id="Vector" d="M15.21 3.95L7.18 3.95C6.96 3.29 6.34 2.82 5.61 2.82C4.88 2.82 4.26 3.29 4.04 3.95L2.78 3.95C2.49 3.95 2.25 4.19 2.25 4.48C2.25 4.77 2.49 5 2.78 5L4.04 5C4.26 5.66 4.88 6.13 5.61 6.13C6.34 6.13 6.96 5.66 7.18 5L15.21 5C15.5 5 15.74 4.77 15.74 4.48C15.74 4.19 15.5 3.95 15.21 3.95ZM5.61 5.08C5.27 5.08 5 4.81 5 4.48C5 4.14 5.27 3.87 5.61 3.87C5.94 3.87 6.21 4.14 6.21 4.48C6.21 4.81 5.94 5.08 5.61 5.08Z" fill="#A18A68" fill-opacity="1.000000" fill-rule="nonzero"/>
		<path id="Vector" d="M15.21 8.47L13.95 8.47C13.73 7.81 13.11 7.34 12.38 7.34C11.65 7.34 11.03 7.81 10.81 8.47L2.78 8.47C2.49 8.47 2.25 8.7 2.25 9C2.25 9.29 2.49 9.52 2.78 9.52L10.81 9.52C11.03 10.18 11.65 10.65 12.38 10.65C13.11 10.65 13.73 10.18 13.95 9.52L15.21 9.52C15.5 9.52 15.74 9.29 15.74 9C15.74 8.7 15.5 8.47 15.21 8.47ZM12.38 9.6C12.05 9.6 11.78 9.33 11.78 9C11.78 8.66 12.05 8.39 12.38 8.39C12.72 8.39 12.99 8.66 12.99 9C12.99 9.33 12.72 9.6 12.38 9.6Z" fill="#A18A68" fill-opacity="1.000000" fill-rule="nonzero"/>
		<path id="Vector" d="M15.21 12.99L9.44 12.99C9.22 12.33 8.59 11.86 7.87 11.86C7.14 11.86 6.52 12.33 6.29 12.99L2.78 12.99C2.49 12.99 2.25 13.22 2.25 13.51C2.25 13.8 2.49 14.04 2.78 14.04L6.29 14.04C6.52 14.7 7.14 15.17 7.87 15.17C8.59 15.17 9.22 14.7 9.44 14.04L15.21 14.04C15.5 14.04 15.74 13.8 15.74 13.51C15.74 13.22 15.5 12.99 15.21 12.99ZM7.87 14.12C7.53 14.12 7.26 13.85 7.26 13.51C7.26 13.18 7.53 12.91 7.87 12.91C8.2 12.91 8.47 13.18 8.47 13.51C8.47 13.85 8.2 14.12 7.87 14.12Z" fill="#A18A68" fill-opacity="1.000000" fill-rule="nonzero"/>
	</g>
</svg>
