<svg width="25.000000" height="25.000000" viewBox="0 0 25 25" fill="none" xmlns="http://www.w3.org/2000/svg" xmlns:xlink="http://www.w3.org/1999/xlink">
	<desc>
			Created with Pixso.
	</desc>
	<defs>
		<clipPath id="clip2046_6470">
			<rect id="heart-svgrepo-com 1" width="25.000000" height="25.000000" fill="white" fill-opacity="0"/>
		</clipPath>
	</defs>
	<rect id="heart-svgrepo-com 1" width="25.000000" height="25.000000" fill="#FFFFFF" fill-opacity="0"/>
	<g clip-path="url(#clip2046_6470)">
		<path id="Vector" d="M11.3428 23.129C11.6537 23.4401 12.0718 23.6134 12.5102 23.6134C12.9435 23.6134 13.3718 23.4349 13.6776 23.129L22.8385 13.9681C24.2302 12.5764 24.9949 10.726 25 8.76318C25 6.79541 24.2353 4.94495 22.8436 3.55322C21.4519 2.1615 19.6064 1.39685 17.6387 1.39685C15.7065 1.39685 13.8866 2.13599 12.5051 3.48181C11.1185 2.13086 9.29346 1.3866 7.35626 1.3866C5.39355 1.3866 3.5481 2.15125 2.15643 3.53784C0.764709 4.92957 0 6.78015 0 8.74792C0 10.7106 0.769775 12.5612 2.1615 13.9529L11.3428 23.129ZM3.04346 4.42493C4.19556 3.27283 5.73004 2.63562 7.36133 2.63562C8.99268 2.63562 10.5322 3.27283 11.6895 4.43005L12.0667 4.80725C12.184 4.92456 12.342 4.99084 12.5102 4.99084C12.6733 4.99084 12.8365 4.92456 12.9537 4.80725L13.3207 4.44019C14.478 3.28296 16.0125 2.64575 17.6489 2.64575C19.2802 2.64575 20.8146 3.28296 21.9667 4.43518C23.124 5.59241 23.7561 7.12683 23.7561 8.75818C23.7561 10.3894 23.1189 11.924 21.9617 13.0812L12.7957 22.2471C12.6478 22.3949 12.3776 22.3949 12.2247 22.2471L3.04852 13.0709C1.8913 11.9137 1.25409 10.3793 1.25409 8.74792C1.25409 7.11658 1.8913 5.58215 3.04346 4.42493Z" fill="#000000" fill-opacity="1.000000" fill-rule="nonzero"/>
		<path id="Vector" d="M12.5102 23.6134C12.9435 23.6134 13.3718 23.4349 13.6776 23.129L22.8385 13.9681C24.2302 12.5764 24.9949 10.726 25 8.76318C25 6.79541 24.2353 4.94495 22.8436 3.55322C21.4519 2.1615 19.6064 1.39685 17.6387 1.39685C15.7065 1.39685 13.8866 2.13599 12.5051 3.48181C11.1185 2.13086 9.29346 1.3866 7.35626 1.3866C5.39355 1.3866 3.5481 2.15125 2.15643 3.53784C0.764709 4.92957 0 6.78015 0 8.74792C0 10.7106 0.769775 12.5612 2.1615 13.9529L11.3428 23.129C11.6537 23.4401 12.0718 23.6134 12.5102 23.6134ZM7.36133 2.63562C8.99268 2.63562 10.5322 3.27283 11.6895 4.43005L12.0667 4.80725C12.184 4.92456 12.342 4.99084 12.5102 4.99084C12.6733 4.99084 12.8365 4.92456 12.9537 4.80725L13.3207 4.44019C14.478 3.28296 16.0125 2.64575 17.6489 2.64575C19.2802 2.64575 20.8146 3.28296 21.9667 4.43518C23.124 5.59241 23.7561 7.12683 23.7561 8.75818C23.7561 10.3894 23.1189 11.924 21.9617 13.0812L12.7957 22.2471C12.6478 22.395 12.3776 22.395 12.2247 22.2471L3.04852 13.0709C1.8913 11.9137 1.25409 10.3793 1.25409 8.74792C1.25409 7.11658 1.8913 5.58215 3.04346 4.42493C4.19556 3.27283 5.73004 2.63562 7.36133 2.63562Z" stroke="#000000" stroke-opacity="1.000000" stroke-width="0.300000"/>
	</g>
</svg>
