<svg width="19.750626" height="19.750488" viewBox="0 0 19.7506 19.7505" fill="none" xmlns="http://www.w3.org/2000/svg" xmlns:xlink="http://www.w3.org/1999/xlink">
	<desc>
			Created with Pixso.
	</desc>
	<defs/>
	<mask id="mask_386_111" fill="white">
		<path id="Icon color" d="M19.2401 17.7502L15.0187 13.5229C14.8819 13.3828 14.7297 13.2585 14.5648 13.1531L13.5095 12.4238C15.6803 9.73389 15.7004 5.89697 13.558 3.18457C11.4156 0.472168 7.68243 -0.39209 4.56861 1.10376C1.45479 2.59961 -0.208635 6.05615 0.56314 9.427C1.33492 12.7979 4.33591 15.1836 7.78945 15.1716C9.46541 15.1721 11.0917 14.6018 12.4014 13.5547L13.1929 14.6113C13.2868 14.7476 13.3927 14.8748 13.5095 14.9919L17.7309 19.2192C17.83 19.3193 17.9649 19.3755 18.1056 19.3755C18.2463 19.3755 18.3811 19.3193 18.4802 19.2192L19.219 18.4795C19.4193 18.281 19.4286 17.96 19.2401 17.7502ZM2.51284 7.77344C2.51284 10.6919 4.87534 13.0576 7.78963 13.0576C9.18912 13.0576 10.5313 12.501 11.5209 11.51C12.5105 10.519 13.0664 9.1748 13.0664 7.77344C13.0664 4.85522 10.7039 2.48926 7.78963 2.48926C4.87534 2.48926 2.51284 4.85522 2.51284 7.77344Z" clip-rule="evenodd" fill="" fill-opacity="1.000000" fill-rule="evenodd"/>
	</mask>
	<path id="Icon color" d="M19.2401 17.7502L15.0187 13.5229C14.8819 13.3828 14.7297 13.2585 14.5648 13.1531L13.5095 12.4238C15.6803 9.73389 15.7004 5.89697 13.558 3.18457C11.4156 0.472168 7.68243 -0.39209 4.56861 1.10376C1.45479 2.59961 -0.208635 6.05615 0.56314 9.427C1.33492 12.7979 4.33591 15.1836 7.78945 15.1716C9.46541 15.1721 11.0917 14.6018 12.4014 13.5547L13.1929 14.6113C13.2868 14.7476 13.3927 14.8748 13.5095 14.9919L17.7309 19.2192C17.83 19.3193 17.9649 19.3755 18.1056 19.3755C18.2463 19.3755 18.3811 19.3193 18.4802 19.2192L19.219 18.4795C19.4193 18.281 19.4286 17.96 19.2401 17.7502ZM2.51284 7.77344C2.51284 10.6919 4.87534 13.0576 7.78963 13.0576C9.18912 13.0576 10.5313 12.501 11.5209 11.51C12.5105 10.519 13.0664 9.1748 13.0664 7.77344C13.0664 4.85522 10.7039 2.48926 7.78963 2.48926C4.87534 2.48926 2.51284 4.85522 2.51284 7.77344Z" clip-rule="evenodd" fill="#000000" fill-opacity="1.000000" fill-rule="evenodd" mask="url(#mask_386_111)"/>
	<path id="Icon color" d="M18.9747 18.0151L14.7533 13.7878Q14.5744 13.6045 14.3625 13.4688L14.357 13.4653L12.964 12.5027L13.2177 12.1882Q13.9802 11.2434 14.3803 10.1028Q14.77 8.99146 14.7762 7.81079Q14.7824 6.62988 14.4044 5.51465Q14.0164 4.36987 13.2638 3.41699Q12.5112 2.46411 11.4882 1.82251Q10.4917 1.19727 9.34304 0.931396Q8.19441 0.665527 7.02505 0.789307Q5.82468 0.91626 4.73098 1.44165Q3.63725 1.96704 2.78694 2.8252Q1.95856 3.66113 1.44668 4.72485Q0.934784 5.78857 0.797981 6.95825Q0.657551 8.15918 0.928681 9.34326Q1.19981 10.5276 1.84857 11.5471Q2.48055 12.5403 3.40399 13.2744Q4.32739 14.0083 5.43659 14.3994Q6.57515 14.8008 7.78815 14.7966Q8.98264 14.7969 10.1087 14.4021Q11.2348 14.0073 12.1672 13.2617L12.4695 13.02L13.4974 14.3926L13.5016 14.3984Q13.6234 14.5752 13.775 14.7271L17.9963 18.9541Q18.0421 19.0005 18.1056 19.0005Q18.169 19.0005 18.2138 18.9553L18.9536 18.2144Q18.9987 18.1697 19.0005 18.1082Q19.0023 18.0466 18.9612 18.001L19.2401 17.7502L18.9747 18.0151ZM19.5054 17.4851L19.5124 17.4922L19.519 17.4995Q19.7607 17.7683 19.7502 18.1299Q19.7397 18.4915 19.4843 18.7444L18.7467 19.4832Q18.6196 19.6113 18.4529 19.6809Q18.2862 19.7505 18.1056 19.7505Q17.925 19.7505 17.7583 19.6809Q17.5916 19.6113 17.4656 19.4841L13.244 15.2568Q13.0446 15.0569 12.8842 14.8245L13.1929 14.6113L12.8927 14.8362L12.1012 13.7793L12.4014 13.5547L12.6356 13.8474Q11.6035 14.6729 10.3568 15.1099Q9.11019 15.5469 7.79076 15.5466Q6.4481 15.5513 5.18723 15.1067Q3.95926 14.6738 2.93728 13.8613Q1.91534 13.0491 1.21581 11.9497Q0.497597 10.821 0.197598 9.51074Q-0.102394 8.20044 0.0530586 6.87109Q0.204461 5.57666 0.770867 4.39966Q1.33729 3.22266 2.25422 2.29736Q3.19571 1.34717 4.40623 0.765625Q5.6168 0.184082 6.9461 0.043457Q8.24077 -0.0935059 9.51217 0.200684Q10.7835 0.495117 11.8868 1.18701Q13.0195 1.89771 13.8523 2.95215Q14.6851 4.00659 15.1147 5.27393Q15.5331 6.5083 15.5262 7.8147Q15.5193 9.12109 15.088 10.3511Q14.6451 11.6138 13.8013 12.6592L13.5095 12.4238L13.7227 12.1152L14.778 12.8445L14.5648 13.1531L14.7672 12.8372Q15.0513 13.0193 15.284 13.2578L19.5054 17.4851ZM2.88784 7.77344Q2.88784 8.77246 3.27297 9.68433Q3.64505 10.5654 4.32373 11.2449Q5.00235 11.9246 5.88192 12.2971Q6.79221 12.6826 7.78963 12.6826Q8.76456 12.6826 9.66529 12.3091Q10.5661 11.9353 11.2555 11.2449Q11.945 10.5544 12.3182 9.65234Q12.6914 8.75 12.6914 7.77344Q12.6914 6.77441 12.3063 5.86255Q11.9342 4.98169 11.2555 4.302Q10.5769 3.62256 9.69734 3.25Q8.78704 2.86426 7.78963 2.86426Q6.79221 2.86426 5.88192 3.25Q5.00234 3.62256 4.32373 4.302Q3.64505 4.98169 3.27297 5.86255Q2.88784 6.77441 2.88784 7.77344ZM2.13784 7.77344Q2.13784 6.62256 2.58207 5.5708Q3.01104 4.55518 3.79303 3.77197Q4.57507 2.98901 5.58941 2.55933Q6.63993 2.11426 7.78963 2.11426Q8.93933 2.11426 9.98985 2.55933Q11.0042 2.98901 11.7862 3.77197Q12.5682 4.55518 12.9972 5.5708Q13.4414 6.62256 13.4414 7.77344Q13.4414 8.89893 13.0113 9.93896Q12.5811 10.979 11.7862 11.7749Q10.9913 12.571 9.95264 13.0017Q8.91393 13.4326 7.78963 13.4326Q6.63993 13.4326 5.58941 12.9875Q4.57507 12.5581 3.79303 11.7749Q3.01104 10.9919 2.58207 9.97632Q2.13784 8.92456 2.13784 7.77344Z" fill="#FFFFFF" fill-opacity="1.000000" fill-rule="nonzero"/>
</svg>
