<svg width="12.000000" height="12.000000" viewBox="0 0 12 12" fill="none" xmlns="http://www.w3.org/2000/svg" xmlns:xlink="http://www.w3.org/1999/xlink">
	<desc>
			Created with Pixso.
	</desc>
	<defs/>
	<path id="Icon color" d="M11.9144 10.9736L9.24829 8.30371C9.16187 8.21484 9.0658 8.13672 8.96167 8.07031L8.29517 7.60938C9.66614 5.91016 9.67883 3.4873 8.32581 1.77441C6.97266 0.0605469 4.61487 -0.484375 2.64819 0.459961C0.681641 1.4043 -0.369019 3.58789 0.118408 5.7168C0.605957 7.8457 2.50122 9.35254 4.6825 9.34473C5.74097 9.34473 6.76807 8.98535 7.59521 8.32324L8.09509 8.99121C8.15442 9.07715 8.22131 9.15723 8.29517 9.23145L10.9613 11.9014C11.0238 11.9648 11.109 12 11.1979 12C11.2867 12 11.3719 11.9648 11.4346 11.9014L11.9011 11.4336C12.0276 11.3086 12.0334 11.1055 11.9144 10.9736ZM1.34985 4.67285C1.34985 6.51562 2.84192 8.00977 4.6825 8.00977C5.56641 8.00977 6.41406 7.6582 7.03906 7.03223C7.66406 6.40625 8.01526 5.55762 8.01526 4.67285C8.01526 2.8291 6.52307 1.33496 4.6825 1.33496C2.84192 1.33496 1.34985 2.8291 1.34985 4.67285Z" clip-rule="evenodd" fill="#707070" fill-opacity="1.000000" fill-rule="evenodd"/>
</svg>
