<svg width="21.000000" height="21.000000" viewBox="0 0 21 21" fill="none" xmlns="http://www.w3.org/2000/svg" xmlns:xlink="http://www.w3.org/1999/xlink">
	<desc>
			Created with Pixso.
	</desc>
	<defs>
		<clipPath id="clip429_265">
			<rect id="shopping-cart 1" width="21.000000" height="21.000000" fill="white" fill-opacity="0"/>
		</clipPath>
	</defs>
	<rect id="shopping-cart 1" width="21.000000" height="21.000000" fill="#FFFFFF" fill-opacity="0"/>
	<g clip-path="url(#clip429_265)">
		<path id="Vector" d="M6.76598 13.5767L6.76694 13.5767C6.76774 13.5767 6.76854 13.5764 6.76934 13.5764L17.9238 13.5764C18.1984 13.5764 18.4399 13.3943 18.5154 13.1301L20.9763 4.51685C21.0293 4.3313 20.9921 4.13159 20.876 3.97754C20.7597 3.82324 20.5778 3.73267 20.3848 3.73267L5.34709 3.73267L4.9073 1.75342C4.84465 1.47192 4.59503 1.27173 4.30664 1.27173L0.615234 1.27173C0.275414 1.27173 0 1.54712 0 1.88696C0 2.22681 0.275414 2.5022 0.615234 2.5022L3.81317 2.5022C3.89104 2.85303 5.91779 11.9734 6.03442 12.498C5.38058 12.7825 4.92188 13.4343 4.92188 14.1917C4.92188 15.2092 5.74988 16.0374 6.76758 16.0374L17.9238 16.0374C18.2636 16.0374 18.5391 15.762 18.5391 15.4221C18.5391 15.0823 18.2636 14.8069 17.9238 14.8069L6.76758 14.8069C6.4284 14.8069 6.15234 14.5308 6.15234 14.1917C6.15234 13.853 6.42744 13.5774 6.76598 13.5767ZM19.5691 4.96313L17.4597 12.3459L7.26105 12.3459L5.62042 4.96313L19.5691 4.96313Z" fill="#000000" fill-opacity="1.000000" fill-rule="nonzero"/>
		<path id="Vector" d="M6.15234 17.8828C6.15234 18.9004 6.98035 19.7285 7.99805 19.7285C9.01575 19.7285 9.84375 18.9004 9.84375 17.8828C9.84375 16.865 9.01575 16.0371 7.99805 16.0371C6.98035 16.0371 6.15234 16.865 6.15234 17.8828ZM7.99805 17.2676C8.33723 17.2676 8.61328 17.5437 8.61328 17.8828C8.61328 18.2219 8.33723 18.498 7.99805 18.498C7.65887 18.498 7.38281 18.2219 7.38281 17.8828C7.38281 17.5437 7.65887 17.2676 7.99805 17.2676Z" fill="#000000" fill-opacity="1.000000" fill-rule="nonzero"/>
		<path id="Vector" d="M14.8477 17.8828C14.8477 18.9004 15.6757 19.7285 16.6934 19.7285C17.7111 19.7285 18.5391 18.9004 18.5391 17.8828C18.5391 16.865 17.7111 16.0371 16.6934 16.0371C15.6757 16.0371 14.8477 16.865 14.8477 17.8828ZM16.6934 17.2676C17.0325 17.2676 17.3086 17.5437 17.3086 17.8828C17.3086 18.2219 17.0325 18.498 16.6934 18.498C16.3542 18.498 16.0781 18.2219 16.0781 17.8828C16.0781 17.5437 16.3542 17.2676 16.6934 17.2676Z" fill="#000000" fill-opacity="1.000000" fill-rule="nonzero"/>
	</g>
</svg>
