<svg width="21.000153" height="21.000000" viewBox="0 0 21.0002 21" fill="none" xmlns="http://www.w3.org/2000/svg" xmlns:xlink="http://www.w3.org/1999/xlink">
	<desc>
			Created with Pixso.
	</desc>
	<defs/>
	<mask id="mask_386_114" fill="white">
		<path id="Icon color" d="M15.5016 5.5C15.5016 8.26147 13.2624 10.5 10.5001 10.5C7.73784 10.5 5.4986 8.26147 5.4986 5.5C5.4986 2.73853 7.73784 0.5 10.5001 0.5C13.2624 0.5 15.5016 2.73853 15.5016 5.5ZM13.5011 5.5C13.5011 3.84302 12.1575 2.5 10.5002 2.5C8.84282 2.5 7.49927 3.84302 7.49927 5.5C7.49927 7.15674 8.84282 8.5 10.5002 8.5C12.1575 8.5 13.5011 7.15674 13.5011 5.5ZM20.3931 19.05L18.5025 15.26C17.6545 13.5684 15.9239 12.5 14.0311 12.5L6.96901 12.5C5.07622 12.5 3.34563 13.5684 2.49765 15.26L0.607086 19.05C0.451065 19.3596 0.466492 19.7278 0.647858 20.0232C0.829224 20.3186 1.15065 20.499 1.49736 20.5L19.5028 20.5C19.8495 20.499 20.1709 20.3186 20.3523 20.0232C20.5337 19.7278 20.5491 19.3596 20.3931 19.05ZM4.28825 16.1599L3.1179 18.5L17.8824 18.5L16.712 16.1599C16.2047 15.144 15.167 14.5015 14.0312 14.5L6.96907 14.5C5.83322 14.5015 4.79559 15.144 4.28825 16.1599Z" clip-rule="evenodd" fill="" fill-opacity="1.000000" fill-rule="evenodd"/>
	</mask>
	<path id="Icon color" d="M15.5016 5.5C15.5016 8.26147 13.2624 10.5 10.5001 10.5C7.73784 10.5 5.4986 8.26147 5.4986 5.5C5.4986 2.73853 7.73784 0.5 10.5001 0.5C13.2624 0.5 15.5016 2.73853 15.5016 5.5ZM13.5011 5.5C13.5011 3.84302 12.1575 2.5 10.5002 2.5C8.84282 2.5 7.49927 3.84302 7.49927 5.5C7.49927 7.15674 8.84282 8.5 10.5002 8.5C12.1575 8.5 13.5011 7.15674 13.5011 5.5ZM20.3931 19.05L18.5025 15.26C17.6545 13.5684 15.9239 12.5 14.0311 12.5L6.96901 12.5C5.07622 12.5 3.34563 13.5684 2.49765 15.26L0.607086 19.05C0.451065 19.3596 0.466492 19.7278 0.647858 20.0232C0.829224 20.3186 1.15065 20.499 1.49736 20.5L19.5028 20.5C19.8495 20.499 20.1709 20.3186 20.3523 20.0232C20.5337 19.7278 20.5491 19.3596 20.3931 19.05ZM4.28825 16.1599L3.1179 18.5L17.8824 18.5L16.712 16.1599C16.2047 15.144 15.167 14.5015 14.0312 14.5L6.96907 14.5C5.83322 14.5015 4.79559 15.144 4.28825 16.1599Z" clip-rule="evenodd" fill="#000000" fill-opacity="1.000000" fill-rule="evenodd" mask="url(#mask_386_114)"/>
	<path id="Icon color" d="M16.0016 5.5Q16.0016 6.61865 15.569 7.64111Q15.1514 8.62817 14.3902 9.38916Q13.629 10.1501 12.6416 10.5676Q11.619 11 10.5001 11Q9.38118 11 8.35857 10.5676Q7.37119 10.1501 6.61 9.38916Q5.8488 8.62817 5.43115 7.64111Q4.9986 6.61865 4.9986 5.5Q4.9986 4.38135 5.43115 3.35889Q5.84879 2.37183 6.61 1.61084Q7.37119 0.849854 8.35857 0.432373Q9.38118 0 10.5001 0Q11.619 0 12.6416 0.432373Q13.629 0.849854 14.3902 1.61084Q15.1514 2.37183 15.569 3.35889Q16.0016 4.38135 16.0016 5.5ZM15.0016 5.5Q15.0016 4.58423 14.6481 3.74854Q14.3065 2.94116 13.6832 2.31812Q13.0599 1.69507 12.2522 1.35352Q11.4163 1 10.5001 1Q9.58391 1 8.74802 1.35352Q7.94026 1.69507 7.317 2.31812Q6.69374 2.94116 6.35211 3.74854Q5.9986 4.58423 5.9986 5.5Q5.9986 6.41577 6.35211 7.25146Q6.69374 8.05884 7.317 8.68188Q7.94026 9.30493 8.74802 9.64648Q9.58391 10 10.5001 10Q11.4163 10 12.2522 9.64648Q13.0599 9.30493 13.6832 8.68188Q14.3065 8.05884 14.6481 7.25146Q15.0016 6.41577 15.0016 5.5ZM13.0011 5.5Q13.0011 4.99097 12.8048 4.5271Q12.615 4.07861 12.2686 3.73218Q11.9223 3.38599 11.4735 3.19629Q11.0094 3 10.5002 3Q9.99101 3 9.52681 3.19629Q9.07809 3.38599 8.73172 3.73218Q8.38536 4.07861 8.19557 4.5271Q7.99927 4.99097 7.99927 5.5Q7.99927 6.00903 8.19557 6.4729Q8.38536 6.92139 8.73172 7.26782Q9.07809 7.61401 9.52681 7.80371Q9.99101 8 10.5002 8Q11.0094 8 11.4735 7.80371Q11.9223 7.61401 12.2686 7.26782Q12.615 6.92139 12.8048 6.4729Q13.0011 6.00903 13.0011 5.5ZM14.0011 5.5Q14.0011 6.21167 13.7257 6.86255Q13.4599 7.49072 12.9756 7.97485Q12.4913 8.45898 11.863 8.72485Q11.2121 9 10.5002 9Q9.78828 9 9.13736 8.72485Q8.50902 8.45898 8.02472 7.97485Q7.54041 7.49072 7.27461 6.86255Q6.99927 6.21167 6.99927 5.5Q6.99927 4.78833 7.27461 4.13745Q7.54041 3.50928 8.02472 3.02515Q8.50902 2.54102 9.13736 2.27515Q9.78828 2 10.5002 2Q11.2121 2 11.863 2.27515Q12.4913 2.54102 12.9756 3.02515Q13.4599 3.50928 13.7257 4.13745Q14.0011 4.78833 14.0011 5.5ZM19.9456 19.2732L18.0551 15.4832Q17.7719 14.9182 17.3443 14.4536Q16.9244 13.9973 16.396 13.6711Q15.8676 13.345 15.2713 13.1741Q14.6642 13 14.0311 13L6.96901 13Q6.33595 13 5.72885 13.1741Q5.13258 13.345 4.60416 13.6711Q4.07573 13.9973 3.65579 14.4536Q3.22824 14.9182 2.94464 15.4841L1.0545 19.2732Q0.995071 19.3911 1.00052 19.521Q1.00595 19.6506 1.07396 19.7615Q1.14197 19.8723 1.25536 19.936Q1.36877 19.9995 1.49887 20L19.5028 20Q19.6314 19.9995 19.7448 19.936Q19.8582 19.8723 19.9262 19.7615Q19.9942 19.6506 19.9996 19.521Q20.0051 19.3911 19.9466 19.2751L19.9456 19.2732ZM20.8396 18.825Q21.0151 19.1731 20.9988 19.5627Q20.9824 19.9524 20.7784 20.2847Q20.5744 20.6169 20.2343 20.8079Q19.8943 20.9988 19.5028 21L1.49583 21Q1.10588 20.9988 0.765854 20.8079Q0.425797 20.6169 0.221756 20.2847Q0.0177155 19.9524 0.00138855 19.5627Q-0.0149384 19.1731 0.159668 18.8269L2.05066 15.0359Q2.39723 14.3445 2.91994 13.7766Q3.4332 13.2188 4.0789 12.8201Q4.72458 12.4216 5.45332 12.2126Q6.19545 12 6.96901 12L14.0312 12Q14.8047 12 15.5468 12.2126Q16.2756 12.4216 16.9212 12.8201Q17.567 13.2188 18.0802 13.7766Q18.6029 14.3445 18.9499 15.0369L20.8405 18.8269L20.8396 18.825ZM4.73544 16.3835L3.56509 18.7236L3.1179 18.5L3.1179 18L17.8824 18L17.8824 18.5L17.4352 18.7236L16.2648 16.3835Q15.9476 15.7483 15.3441 15.3748Q14.7405 15.001 14.0305 15L6.96907 15Q6.25977 15.001 5.6562 15.3748Q5.05267 15.7483 4.73558 16.3833L4.73544 16.3835ZM3.84093 15.9365Q4.06084 15.4963 4.39302 15.1343Q4.71916 14.7788 5.12975 14.5244Q5.54031 14.2703 6.00392 14.1367Q6.4761 14.0007 6.96907 14L14.0319 14Q14.5242 14.0007 14.9963 14.1367Q15.46 14.2703 15.8705 14.5244Q16.2811 14.7788 16.6073 15.1343Q16.9394 15.4963 17.1592 15.9363L18.6915 19L2.30878 19L3.84106 15.9363L3.84093 15.9365Z" fill="#FFFFFF" fill-opacity="1.000000" fill-rule="nonzero"/>
</svg>
