<svg width="10.000000" height="18.000000" viewBox="0 0 10 18" fill="none" xmlns="http://www.w3.org/2000/svg" xmlns:xlink="http://www.w3.org/1999/xlink">
	<desc>
			Created with Pixso.
	</desc>
	<defs/>
	<path id="Icon color" d="M9.5 3L6.5 3C5.94772 3 5.5 3.44772 5.5 4L5.5 7L9.5 7C9.61374 6.99747 9.7216 7.05038 9.78923 7.14188C9.85685 7.23337 9.87578 7.35202 9.84 7.45999L9.1 9.66C9.03181 9.86191 8.84312 9.99841 8.63 10L5.5 10L5.5 17.5C5.5 17.7762 5.27614 18 5 18L2.5 18C2.22386 18 2 17.7762 2 17.5L2 10L0.5 10C0.223858 10 0 9.77615 0 9.5L0 7.5C0 7.22385 0.223858 7 0.5 7L2 7L2 4C2 1.79086 3.79086 0 6 0L9.5 0C9.77614 0 10 0.223846 10 0.5L10 2.5C10 2.77615 9.77614 3 9.5 3Z" fill="#707070" fill-opacity="1.000000" fill-rule="nonzero"/>
	<path id="Icon color" d="M6.5 3C5.94772 3 5.5 3.44772 5.5 4L5.5 7L9.5 7C9.61374 6.99747 9.7216 7.05038 9.78923 7.14188C9.85685 7.23337 9.87578 7.35202 9.84 7.45999L9.1 9.66C9.03181 9.86191 8.84312 9.99841 8.63 10L5.5 10L5.5 17.5C5.5 17.7762 5.27614 18 5 18L2.5 18C2.22386 18 2 17.7762 2 17.5L2 10L0.5 10C0.223858 10 0 9.77615 0 9.5L0 7.5C0 7.22385 0.223858 7 0.5 7L2 7L2 4C2 1.79086 3.79086 0 6 0L9.5 0C9.77614 0 10 0.223846 10 0.5L10 2.5C10 2.77615 9.77614 3 9.5 3L6.5 3Z" stroke="#979797" stroke-opacity="0" stroke-width="0.000000"/>
</svg>
