<svg width="18.530106" height="17.999939" viewBox="0 0 18.5301 17.9999" fill="none" xmlns="http://www.w3.org/2000/svg" xmlns:xlink="http://www.w3.org/1999/xlink">
	<desc>
			Created with Pixso.
	</desc>
	<defs/>
	<mask id="mask_1422_6517" fill="white">
		<path id="Icon color" d="M0 2.11765C0 0.94809 0.948103 0 2.11765 0C2.67928 0 3.21791 0.223114 3.61505 0.620239C4.01219 1.0174 4.23529 1.556 4.23529 2.11765C4.23529 3.2872 3.28719 4.23529 2.11765 4.23529C0.948103 4.23529 0 3.2872 0 2.11765ZM18.5295 11.0223C18.566 8.72983 17.002 6.72095 14.7707 6.19406C13.2753 5.87207 11.7167 6.29428 10.5883 7.327L10.5883 6.88229C10.5883 6.5899 10.3513 6.35287 10.0589 6.35287L7.41183 6.35287C7.11945 6.35287 6.88242 6.5899 6.88242 6.88229L6.88242 17.4705C6.88242 17.7629 7.11945 17.9999 7.41183 17.9999L10.0589 17.9999C10.3513 17.9999 10.5883 17.7629 10.5883 17.4705L10.5883 11.4988C10.5622 10.4354 11.3033 9.50677 12.346 9.29642C12.9668 9.18924 13.6031 9.36407 14.0821 9.77341C14.561 10.1828 14.8328 10.7841 14.8236 11.4141L14.8236 17.4705C14.8236 17.7629 15.0606 17.9999 15.353 17.9999L18.0001 17.9999C18.2925 17.9999 18.5295 17.7629 18.5295 17.4705L18.5295 11.0223ZM4.23528 6.88229L4.23528 17.4705C4.23528 17.7629 3.99825 17.9999 3.70587 17.9999L1.05881 17.9999C0.76642 17.9999 0.529395 17.7629 0.529395 17.4705L0.529395 6.88229C0.529395 6.5899 0.76642 6.35287 1.05881 6.35287L3.70587 6.35287C3.99825 6.35287 4.23528 6.5899 4.23528 6.88229Z" clip-rule="evenodd" fill="" fill-opacity="1.000000" fill-rule="evenodd"/>
	</mask>
	<path id="Icon color" d="M0 2.11765C0 0.94809 0.948103 0 2.11765 0C2.67928 0 3.21791 0.223114 3.61505 0.620239C4.01219 1.0174 4.23529 1.556 4.23529 2.11765C4.23529 3.2872 3.28719 4.23529 2.11765 4.23529C0.948103 4.23529 0 3.2872 0 2.11765ZM18.5295 11.0223C18.566 8.72983 17.002 6.72095 14.7707 6.19406C13.2753 5.87207 11.7167 6.29428 10.5883 7.327L10.5883 6.88229C10.5883 6.5899 10.3513 6.35287 10.0589 6.35287L7.41183 6.35287C7.11945 6.35287 6.88242 6.5899 6.88242 6.88229L6.88242 17.4705C6.88242 17.7629 7.11945 17.9999 7.41183 17.9999L10.0589 17.9999C10.3513 17.9999 10.5883 17.7629 10.5883 17.4705L10.5883 11.4988C10.5622 10.4354 11.3033 9.50677 12.346 9.29642C12.9668 9.18924 13.6031 9.36407 14.0821 9.77341C14.561 10.1828 14.8328 10.7841 14.8236 11.4141L14.8236 17.4705C14.8236 17.7629 15.0606 17.9999 15.353 17.9999L18.0001 17.9999C18.2925 17.9999 18.5295 17.7629 18.5295 17.4705L18.5295 11.0223ZM4.23528 6.88229L4.23528 17.4705C4.23528 17.7629 3.99825 17.9999 3.70587 17.9999L1.05881 17.9999C0.76642 17.9999 0.529395 17.7629 0.529395 17.4705L0.529395 6.88229C0.529395 6.5899 0.76642 6.35287 1.05881 6.35287L3.70587 6.35287C3.99825 6.35287 4.23528 6.5899 4.23528 6.88229Z" clip-rule="evenodd" fill="#707070" fill-opacity="1.000000" fill-rule="evenodd" mask="url(#mask_1422_6517)"/>
	<path id="Icon color" d="" fill="#979797" fill-opacity="0.000000" fill-rule="nonzero"/>
</svg>
