<svg width="20.000000" height="17.000000" viewBox="0 0 20 17" fill="none" xmlns="http://www.w3.org/2000/svg" xmlns:xlink="http://www.w3.org/1999/xlink">
	<desc>
			Created with Pixso.
	</desc>
	<defs/>
	<path id="Icon color" d="M19.9707 2.46378C19.4547 3.15213 18.8309 3.75259 18.1235 4.24194C18.1235 4.42175 18.1235 4.60159 18.1235 4.79138C18.1292 8.05679 16.8249 11.1879 14.5029 13.4828C12.181 15.7776 9.03568 17.0443 5.77211 16.9988C3.88538 17.0051 2.02281 16.5743 0.330307 15.7401C0.239044 15.7003 0.180176 15.61 0.180527 15.5103L0.180527 15.4005C0.180527 15.257 0.296753 15.1407 0.44014 15.1407C2.29475 15.0796 4.08319 14.4366 5.55244 13.3026C3.87376 13.2688 2.36337 12.2744 1.66829 10.7452C1.63318 10.6617 1.6441 10.5659 1.69713 10.4925C1.75015 10.419 1.83762 10.3785 1.9279 10.3856C2.43808 10.4369 2.95337 10.3894 3.44562 10.2458C1.59248 9.86108 0.200073 8.32266 0.000793457 6.4397C-0.00628662 6.34937 0.0341949 6.26187 0.107605 6.2088C0.18103 6.15576 0.276779 6.14484 0.36026 6.17996C0.857559 6.39938 1.39438 6.51495 1.93788 6.51959C0.314102 5.45386 -0.387253 3.42673 0.230453 1.58469C0.29422 1.4057 0.447403 1.27347 0.633728 1.2366C0.820038 1.19974 1.01201 1.26364 1.13908 1.40488C3.33028 3.73694 6.34099 5.12662 9.53645 5.28088C9.45461 4.95428 9.41434 4.61862 9.41663 4.28192C9.44652 2.51636 10.5389 0.943573 12.1824 0.299866C13.826 -0.343842 15.6953 0.0689392 16.9153 1.34494C17.747 1.18649 18.551 0.907166 19.3018 0.515778C19.3568 0.481445 19.4265 0.481445 19.4815 0.515778C19.5158 0.570801 19.5158 0.640594 19.4815 0.695618C19.1178 1.52835 18.5035 2.22681 17.7241 2.69354C18.4066 2.61441 19.0771 2.4534 19.7211 2.21405C19.7754 2.17712 19.8466 2.17712 19.9008 2.21405C19.9463 2.23483 19.9802 2.27457 19.9937 2.32269C20.0072 2.37082 19.9988 2.42242 19.9707 2.46378Z" fill="#707070" fill-opacity="1.000000" fill-rule="nonzero"/>
	<path id="Icon color" d="M18.1235 4.24194C18.1235 4.42175 18.1235 4.60159 18.1235 4.79138C18.1292 8.05679 16.8249 11.1879 14.5029 13.4828C12.181 15.7776 9.03568 17.0443 5.77211 16.9988C3.88538 17.0051 2.02281 16.5743 0.330307 15.7401C0.239044 15.7003 0.180176 15.61 0.180527 15.5103L0.180527 15.4005C0.180527 15.257 0.296753 15.1407 0.44014 15.1407C2.29475 15.0796 4.08319 14.4366 5.55244 13.3026C3.87376 13.2688 2.36337 12.2744 1.66829 10.7452C1.63318 10.6617 1.6441 10.5659 1.69713 10.4925C1.75015 10.419 1.83762 10.3785 1.9279 10.3856C2.43808 10.4369 2.95337 10.3894 3.44562 10.2458C1.59248 9.86108 0.200073 8.32266 0.000793457 6.4397C-0.00628662 6.34937 0.0341949 6.26187 0.107605 6.2088C0.18103 6.15576 0.276779 6.14484 0.36026 6.17996C0.857559 6.39938 1.39438 6.51495 1.93788 6.51959C0.314102 5.45386 -0.387253 3.42673 0.230453 1.58469C0.29422 1.4057 0.447403 1.27347 0.633728 1.2366C0.820038 1.19974 1.01201 1.26364 1.13908 1.40488C3.33028 3.73694 6.34099 5.12662 9.53645 5.28088C9.45461 4.95428 9.41434 4.61862 9.41663 4.28192C9.44652 2.51636 10.5389 0.943573 12.1824 0.299866C13.826 -0.343842 15.6953 0.0689392 16.9153 1.34494C17.747 1.18649 18.551 0.907166 19.3018 0.515778C19.3568 0.481445 19.4265 0.481445 19.4815 0.515778C19.5158 0.570801 19.5158 0.640594 19.4815 0.695618C19.1178 1.52835 18.5035 2.22681 17.7241 2.69354C18.4066 2.61441 19.0771 2.4534 19.7211 2.21405C19.7754 2.17712 19.8466 2.17712 19.9008 2.21405C19.9463 2.23483 19.9802 2.27457 19.9937 2.32269C20.0072 2.37082 19.9988 2.42242 19.9707 2.46378C19.4547 3.15213 18.8309 3.75259 18.1235 4.24194Z" stroke="#979797" stroke-opacity="0" stroke-width="0.000000"/>
</svg>
